<mxfile host="app.diagrams.net" agent="Mozilla/5.0 (Windows NT 10.0; Win64; x64) AppleWebKit/537.36 (KHTML, like Gecko) Chrome/133.0.0.0 Safari/537.36" version="26.1.0">
  <diagram name="第 1 页" id="gDU1b_FPKUj2_BpZ1eFG">
    <mxGraphModel dx="4284" dy="2124" grid="1" gridSize="10" guides="1" tooltips="1" connect="1" arrows="1" fold="1" page="1" pageScale="1" pageWidth="827" pageHeight="1169" math="0" shadow="0">
      <root>
        <mxCell id="0" />
        <mxCell id="1" parent="0" />
        <mxCell id="uNpfINHXBhPcbjjiFxd6-16" style="edgeStyle=orthogonalEdgeStyle;rounded=0;orthogonalLoop=1;jettySize=auto;html=1;exitX=1;exitY=0.5;exitDx=0;exitDy=0;" parent="1" source="uNpfINHXBhPcbjjiFxd6-2" target="uNpfINHXBhPcbjjiFxd6-15" edge="1">
          <mxGeometry relative="1" as="geometry" />
        </mxCell>
        <mxCell id="uNpfINHXBhPcbjjiFxd6-2" value="&lt;font style=&quot;font-size: 16px;&quot;&gt;玩家输入事件&lt;/font&gt;" style="rounded=1;whiteSpace=wrap;html=1;" parent="1" vertex="1">
          <mxGeometry x="-780" y="240" width="120" height="50" as="geometry" />
        </mxCell>
        <mxCell id="uNpfINHXBhPcbjjiFxd6-8" value="&lt;font style=&quot;font-size: 30px;&quot;&gt;载具&amp;nbsp;IVehicleInterface&lt;/font&gt;" style="swimlane;whiteSpace=wrap;html=1;startSize=60;" parent="1" vertex="1">
          <mxGeometry x="450" y="-170" width="600" height="720" as="geometry" />
        </mxCell>
        <mxCell id="uNpfINHXBhPcbjjiFxd6-5" value="&lt;span style=&quot;font-size: 18px;&quot;&gt;EnterLeaveCollision&lt;/span&gt;" style="rounded=1;whiteSpace=wrap;html=1;strokeWidth=2;" parent="uNpfINHXBhPcbjjiFxd6-8" vertex="1">
          <mxGeometry x="80" y="140" width="200" height="60" as="geometry" />
        </mxCell>
        <mxCell id="uNpfINHXBhPcbjjiFxd6-32" value="&lt;span style=&quot;font-size: 16px;&quot;&gt;TryEnter&lt;/span&gt;" style="rounded=1;whiteSpace=wrap;html=1;" parent="uNpfINHXBhPcbjjiFxd6-8" vertex="1">
          <mxGeometry x="110" y="440" width="110" height="55" as="geometry" />
        </mxCell>
        <mxCell id="uNpfINHXBhPcbjjiFxd6-37" value="&lt;span style=&quot;font-size: 16px;&quot;&gt;TryLeave&lt;/span&gt;" style="rounded=1;whiteSpace=wrap;html=1;" parent="uNpfINHXBhPcbjjiFxd6-8" vertex="1">
          <mxGeometry x="110" y="565" width="110" height="55" as="geometry" />
        </mxCell>
        <mxCell id="uNpfINHXBhPcbjjiFxd6-48" value="&lt;span style=&quot;font-size: 18px;&quot;&gt;SeatsComponent&lt;/span&gt;" style="rounded=1;whiteSpace=wrap;html=1;strokeWidth=2;" parent="uNpfINHXBhPcbjjiFxd6-8" vertex="1">
          <mxGeometry x="80" y="240" width="200" height="60" as="geometry" />
        </mxCell>
        <mxCell id="uNpfINHXBhPcbjjiFxd6-49" value="&lt;span style=&quot;font-size: 18px;&quot;&gt;Custom Move&lt;/span&gt;" style="rounded=1;whiteSpace=wrap;html=1;strokeWidth=2;" parent="uNpfINHXBhPcbjjiFxd6-8" vertex="1">
          <mxGeometry x="80" y="330" width="140" height="60" as="geometry" />
        </mxCell>
        <mxCell id="uNpfINHXBhPcbjjiFxd6-50" value="&lt;span style=&quot;font-size: 18px;&quot;&gt;Custom Look&lt;/span&gt;" style="rounded=1;whiteSpace=wrap;html=1;strokeWidth=2;" parent="uNpfINHXBhPcbjjiFxd6-8" vertex="1">
          <mxGeometry x="270" y="330" width="140" height="60" as="geometry" />
        </mxCell>
        <mxCell id="uNpfINHXBhPcbjjiFxd6-10" value="&lt;span style=&quot;font-size: 30px;&quot;&gt;骑乘用户&amp;nbsp;IVehicleUserInterface&lt;/span&gt;" style="swimlane;whiteSpace=wrap;html=1;startSize=60;" parent="1" vertex="1">
          <mxGeometry x="-600" y="-170" width="1000" height="720" as="geometry" />
        </mxCell>
        <mxCell id="uNpfINHXBhPcbjjiFxd6-34" style="rounded=0;orthogonalLoop=1;jettySize=auto;html=1;exitX=1;exitY=0.5;exitDx=0;exitDy=0;entryX=0;entryY=0.5;entryDx=0;entryDy=0;" parent="uNpfINHXBhPcbjjiFxd6-10" source="uNpfINHXBhPcbjjiFxd6-15" target="uNpfINHXBhPcbjjiFxd6-19" edge="1">
          <mxGeometry relative="1" as="geometry" />
        </mxCell>
        <mxCell id="uNpfINHXBhPcbjjiFxd6-41" style="rounded=0;orthogonalLoop=1;jettySize=auto;html=1;exitX=1;exitY=0.5;exitDx=0;exitDy=0;entryX=0;entryY=0.5;entryDx=0;entryDy=0;" parent="uNpfINHXBhPcbjjiFxd6-10" source="uNpfINHXBhPcbjjiFxd6-15" target="uNpfINHXBhPcbjjiFxd6-40" edge="1">
          <mxGeometry relative="1" as="geometry" />
        </mxCell>
        <mxCell id="uNpfINHXBhPcbjjiFxd6-15" value="&lt;font style=&quot;font-size: 16px;&quot;&gt;检测是否在载具上&lt;/font&gt;" style="rounded=1;whiteSpace=wrap;html=1;" parent="uNpfINHXBhPcbjjiFxd6-10" vertex="1">
          <mxGeometry x="16" y="412.5" width="143" height="45" as="geometry" />
        </mxCell>
        <mxCell id="uNpfINHXBhPcbjjiFxd6-24" style="edgeStyle=orthogonalEdgeStyle;rounded=0;orthogonalLoop=1;jettySize=auto;html=1;exitX=1;exitY=0.5;exitDx=0;exitDy=0;" parent="uNpfINHXBhPcbjjiFxd6-10" source="uNpfINHXBhPcbjjiFxd6-19" target="uNpfINHXBhPcbjjiFxd6-23" edge="1">
          <mxGeometry relative="1" as="geometry" />
        </mxCell>
        <mxCell id="uNpfINHXBhPcbjjiFxd6-19" value="&lt;span style=&quot;font-size: 16px;&quot;&gt;获取ValidVehicle中最合适的&lt;/span&gt;" style="rounded=1;whiteSpace=wrap;html=1;" parent="uNpfINHXBhPcbjjiFxd6-10" vertex="1">
          <mxGeometry x="321" y="315" width="130" height="50" as="geometry" />
        </mxCell>
        <mxCell id="uNpfINHXBhPcbjjiFxd6-22" style="rounded=0;orthogonalLoop=1;jettySize=auto;html=1;exitX=0.5;exitY=1;exitDx=0;exitDy=0;entryX=0.5;entryY=0;entryDx=0;entryDy=0;" parent="uNpfINHXBhPcbjjiFxd6-10" source="uNpfINHXBhPcbjjiFxd6-21" target="uNpfINHXBhPcbjjiFxd6-19" edge="1">
          <mxGeometry relative="1" as="geometry" />
        </mxCell>
        <mxCell id="uNpfINHXBhPcbjjiFxd6-21" value="" style="swimlane;startSize=0;" parent="uNpfINHXBhPcbjjiFxd6-10" vertex="1">
          <mxGeometry x="286" y="90" width="200" height="190" as="geometry" />
        </mxCell>
        <mxCell id="uNpfINHXBhPcbjjiFxd6-6" value="&lt;span style=&quot;font-size: 18px;&quot;&gt;VehicleFind&lt;/span&gt;" style="rounded=1;whiteSpace=wrap;html=1;" parent="uNpfINHXBhPcbjjiFxd6-21" vertex="1">
          <mxGeometry x="45" y="20" width="120" height="60" as="geometry" />
        </mxCell>
        <mxCell id="uNpfINHXBhPcbjjiFxd6-7" value="&lt;span style=&quot;font-size: 18px;&quot;&gt;VehicleLost&lt;/span&gt;" style="rounded=1;whiteSpace=wrap;html=1;" parent="uNpfINHXBhPcbjjiFxd6-21" vertex="1">
          <mxGeometry x="45" y="100" width="120" height="60" as="geometry" />
        </mxCell>
        <mxCell id="uNpfINHXBhPcbjjiFxd6-27" style="rounded=0;orthogonalLoop=1;jettySize=auto;html=1;exitX=1;exitY=0.5;exitDx=0;exitDy=0;" parent="uNpfINHXBhPcbjjiFxd6-10" source="uNpfINHXBhPcbjjiFxd6-23" target="uNpfINHXBhPcbjjiFxd6-26" edge="1">
          <mxGeometry relative="1" as="geometry" />
        </mxCell>
        <mxCell id="uNpfINHXBhPcbjjiFxd6-23" value="&lt;span style=&quot;font-size: 16px;&quot;&gt;获取最近进出点&lt;/span&gt;" style="rounded=1;whiteSpace=wrap;html=1;" parent="uNpfINHXBhPcbjjiFxd6-10" vertex="1">
          <mxGeometry x="536" y="312.5" width="150" height="55" as="geometry" />
        </mxCell>
        <mxCell id="uNpfINHXBhPcbjjiFxd6-26" value="&lt;span style=&quot;font-size: 16px;&quot;&gt;SimpleMoveToLocation&lt;/span&gt;" style="rounded=1;whiteSpace=wrap;html=1;" parent="uNpfINHXBhPcbjjiFxd6-10" vertex="1">
          <mxGeometry x="746" y="315" width="180" height="52.5" as="geometry" />
        </mxCell>
        <mxCell id="uNpfINHXBhPcbjjiFxd6-36" style="edgeStyle=orthogonalEdgeStyle;rounded=0;orthogonalLoop=1;jettySize=auto;html=1;exitX=1;exitY=0.5;exitDx=0;exitDy=0;" parent="uNpfINHXBhPcbjjiFxd6-10" source="uNpfINHXBhPcbjjiFxd6-30" target="uNpfINHXBhPcbjjiFxd6-35" edge="1">
          <mxGeometry relative="1" as="geometry" />
        </mxCell>
        <mxCell id="uNpfINHXBhPcbjjiFxd6-30" value="&lt;span style=&quot;font-size: 16px;&quot;&gt;播放动画&lt;/span&gt;" style="rounded=1;whiteSpace=wrap;html=1;" parent="uNpfINHXBhPcbjjiFxd6-10" vertex="1">
          <mxGeometry x="536" y="440" width="110" height="55" as="geometry" />
        </mxCell>
        <mxCell id="uNpfINHXBhPcbjjiFxd6-28" value="&lt;span style=&quot;font-size: 16px;&quot;&gt;设置移动状态和碰撞&lt;/span&gt;" style="rounded=1;whiteSpace=wrap;html=1;" parent="uNpfINHXBhPcbjjiFxd6-10" vertex="1">
          <mxGeometry x="256" y="441.25" width="170" height="52.5" as="geometry" />
        </mxCell>
        <mxCell id="uNpfINHXBhPcbjjiFxd6-29" style="rounded=0;orthogonalLoop=1;jettySize=auto;html=1;exitX=1;exitY=0.5;exitDx=0;exitDy=0;edgeStyle=orthogonalEdgeStyle;" parent="uNpfINHXBhPcbjjiFxd6-10" source="uNpfINHXBhPcbjjiFxd6-26" target="uNpfINHXBhPcbjjiFxd6-28" edge="1">
          <mxGeometry relative="1" as="geometry" />
        </mxCell>
        <mxCell id="uNpfINHXBhPcbjjiFxd6-31" style="edgeStyle=orthogonalEdgeStyle;rounded=0;orthogonalLoop=1;jettySize=auto;html=1;exitX=1;exitY=0.5;exitDx=0;exitDy=0;entryX=0;entryY=0.5;entryDx=0;entryDy=0;" parent="uNpfINHXBhPcbjjiFxd6-10" source="uNpfINHXBhPcbjjiFxd6-28" target="uNpfINHXBhPcbjjiFxd6-30" edge="1">
          <mxGeometry relative="1" as="geometry" />
        </mxCell>
        <mxCell id="uNpfINHXBhPcbjjiFxd6-35" value="&lt;span style=&quot;font-size: 16px;&quot;&gt;混出时移动Root到Seat上&lt;/span&gt;" style="rounded=1;whiteSpace=wrap;html=1;" parent="uNpfINHXBhPcbjjiFxd6-10" vertex="1">
          <mxGeometry x="696" y="440" width="210" height="55" as="geometry" />
        </mxCell>
        <mxCell id="uNpfINHXBhPcbjjiFxd6-43" style="edgeStyle=orthogonalEdgeStyle;rounded=0;orthogonalLoop=1;jettySize=auto;html=1;exitX=1;exitY=0.5;exitDx=0;exitDy=0;entryX=0;entryY=0.5;entryDx=0;entryDy=0;" parent="uNpfINHXBhPcbjjiFxd6-10" source="uNpfINHXBhPcbjjiFxd6-40" target="uNpfINHXBhPcbjjiFxd6-42" edge="1">
          <mxGeometry relative="1" as="geometry" />
        </mxCell>
        <mxCell id="uNpfINHXBhPcbjjiFxd6-40" value="&lt;span style=&quot;font-size: 16px;&quot;&gt;选择最合适的退出点&lt;/span&gt;" style="rounded=1;whiteSpace=wrap;html=1;" parent="uNpfINHXBhPcbjjiFxd6-10" vertex="1">
          <mxGeometry x="269.5" y="570" width="180.5" height="45" as="geometry" />
        </mxCell>
        <mxCell id="uNpfINHXBhPcbjjiFxd6-46" style="edgeStyle=orthogonalEdgeStyle;rounded=0;orthogonalLoop=1;jettySize=auto;html=1;exitX=1;exitY=0.5;exitDx=0;exitDy=0;" parent="uNpfINHXBhPcbjjiFxd6-10" source="uNpfINHXBhPcbjjiFxd6-42" target="uNpfINHXBhPcbjjiFxd6-44" edge="1">
          <mxGeometry relative="1" as="geometry" />
        </mxCell>
        <mxCell id="uNpfINHXBhPcbjjiFxd6-42" value="&lt;span style=&quot;font-size: 16px;&quot;&gt;设置移动状态&lt;/span&gt;" style="rounded=1;whiteSpace=wrap;html=1;" parent="uNpfINHXBhPcbjjiFxd6-10" vertex="1">
          <mxGeometry x="515.5" y="570" width="134.5" height="45" as="geometry" />
        </mxCell>
        <mxCell id="uNpfINHXBhPcbjjiFxd6-44" value="&lt;span style=&quot;font-size: 16px;&quot;&gt;播放动画&lt;/span&gt;" style="rounded=1;whiteSpace=wrap;html=1;" parent="uNpfINHXBhPcbjjiFxd6-10" vertex="1">
          <mxGeometry x="686" y="570" width="104" height="45" as="geometry" />
        </mxCell>
        <mxCell id="uNpfINHXBhPcbjjiFxd6-13" value="" style="endArrow=classic;html=1;rounded=0;entryX=1;entryY=0.5;entryDx=0;entryDy=0;exitX=0;exitY=0.5;exitDx=0;exitDy=0;" parent="1" source="uNpfINHXBhPcbjjiFxd6-5" target="uNpfINHXBhPcbjjiFxd6-6" edge="1">
          <mxGeometry width="50" height="50" relative="1" as="geometry">
            <mxPoint x="310" y="60" as="sourcePoint" />
            <mxPoint x="120" y="40" as="targetPoint" />
          </mxGeometry>
        </mxCell>
        <mxCell id="uNpfINHXBhPcbjjiFxd6-14" value="" style="endArrow=classic;html=1;rounded=0;entryX=1;entryY=0.5;entryDx=0;entryDy=0;exitX=-0.002;exitY=0.617;exitDx=0;exitDy=0;exitPerimeter=0;" parent="1" source="uNpfINHXBhPcbjjiFxd6-5" target="uNpfINHXBhPcbjjiFxd6-7" edge="1">
          <mxGeometry width="50" height="50" relative="1" as="geometry">
            <mxPoint x="310" y="60" as="sourcePoint" />
            <mxPoint x="-170" y="30" as="targetPoint" />
          </mxGeometry>
        </mxCell>
        <mxCell id="uNpfINHXBhPcbjjiFxd6-38" style="rounded=0;orthogonalLoop=1;jettySize=auto;html=1;exitX=1;exitY=0.5;exitDx=0;exitDy=0;entryX=0;entryY=0.5;entryDx=0;entryDy=0;" parent="1" source="uNpfINHXBhPcbjjiFxd6-35" target="uNpfINHXBhPcbjjiFxd6-32" edge="1">
          <mxGeometry relative="1" as="geometry" />
        </mxCell>
        <mxCell id="uNpfINHXBhPcbjjiFxd6-47" style="edgeStyle=orthogonalEdgeStyle;rounded=0;orthogonalLoop=1;jettySize=auto;html=1;exitX=1;exitY=0.5;exitDx=0;exitDy=0;entryX=0;entryY=0.5;entryDx=0;entryDy=0;" parent="1" source="uNpfINHXBhPcbjjiFxd6-44" target="uNpfINHXBhPcbjjiFxd6-37" edge="1">
          <mxGeometry relative="1" as="geometry" />
        </mxCell>
        <mxCell id="Y2Ycr3pLK0KxsmjXO_Lx-1" value="&lt;font style=&quot;font-size: 14px;&quot;&gt;IVehicleInterface&lt;/font&gt;" style="html=1;whiteSpace=wrap;" vertex="1" parent="1">
          <mxGeometry x="-1370" y="-130" width="120" height="50" as="geometry" />
        </mxCell>
        <mxCell id="Y2Ycr3pLK0KxsmjXO_Lx-2" value="&lt;font style=&quot;font-size: 14px;&quot;&gt;ALeggedVehicle&lt;/font&gt;" style="html=1;whiteSpace=wrap;" vertex="1" parent="1">
          <mxGeometry x="-1520" y="10" width="120" height="50" as="geometry" />
        </mxCell>
        <mxCell id="Y2Ycr3pLK0KxsmjXO_Lx-3" value="&lt;font style=&quot;font-size: 14px;&quot;&gt;BP_Horse&lt;/font&gt;" style="html=1;whiteSpace=wrap;" vertex="1" parent="1">
          <mxGeometry x="-1520" y="130" width="120" height="50" as="geometry" />
        </mxCell>
        <mxCell id="Y2Ycr3pLK0KxsmjXO_Lx-5" value="&lt;font style=&quot;font-size: 14px;&quot;&gt;ACharacter&lt;/font&gt;" style="html=1;whiteSpace=wrap;" vertex="1" parent="1">
          <mxGeometry x="-1520" y="-130" width="120" height="50" as="geometry" />
        </mxCell>
        <mxCell id="Y2Ycr3pLK0KxsmjXO_Lx-7" value="" style="endArrow=block;dashed=1;endFill=0;endSize=12;html=1;rounded=0;entryX=0.5;entryY=1;entryDx=0;entryDy=0;edgeStyle=orthogonalEdgeStyle;" edge="1" parent="1" source="Y2Ycr3pLK0KxsmjXO_Lx-2" target="Y2Ycr3pLK0KxsmjXO_Lx-1">
          <mxGeometry width="160" relative="1" as="geometry">
            <mxPoint x="-1490" y="-20" as="sourcePoint" />
            <mxPoint x="-1330" y="-20" as="targetPoint" />
          </mxGeometry>
        </mxCell>
        <mxCell id="Y2Ycr3pLK0KxsmjXO_Lx-8" value="" style="endArrow=block;endSize=16;endFill=0;html=1;rounded=0;exitX=0.5;exitY=0;exitDx=0;exitDy=0;" edge="1" parent="1" source="Y2Ycr3pLK0KxsmjXO_Lx-2">
          <mxGeometry width="160" relative="1" as="geometry">
            <mxPoint x="-1680" y="50" as="sourcePoint" />
            <mxPoint x="-1460" y="-80" as="targetPoint" />
          </mxGeometry>
        </mxCell>
        <mxCell id="Y2Ycr3pLK0KxsmjXO_Lx-9" value="" style="endArrow=block;endSize=16;endFill=0;html=1;rounded=0;entryX=0.5;entryY=1;entryDx=0;entryDy=0;exitX=0.5;exitY=0;exitDx=0;exitDy=0;" edge="1" parent="1" source="Y2Ycr3pLK0KxsmjXO_Lx-3">
          <mxGeometry width="160" relative="1" as="geometry">
            <mxPoint x="-1460.43" y="150" as="sourcePoint" />
            <mxPoint x="-1460.43" y="60" as="targetPoint" />
          </mxGeometry>
        </mxCell>
        <mxCell id="Y2Ycr3pLK0KxsmjXO_Lx-11" value="&lt;font style=&quot;font-size: 13px;&quot;&gt;IVehicleUserInterface&lt;/font&gt;" style="html=1;whiteSpace=wrap;" vertex="1" parent="1">
          <mxGeometry x="-1920" y="-120" width="150" height="50" as="geometry" />
        </mxCell>
        <mxCell id="Y2Ycr3pLK0KxsmjXO_Lx-12" value="&lt;font style=&quot;font-size: 13px;&quot;&gt;UActorComponent&lt;/font&gt;" style="html=1;whiteSpace=wrap;" vertex="1" parent="1">
          <mxGeometry x="-2120" y="-120" width="140" height="50" as="geometry" />
        </mxCell>
        <mxCell id="Y2Ycr3pLK0KxsmjXO_Lx-13" value="&lt;font style=&quot;font-size: 13px;&quot;&gt;UVehicleUserComponent&lt;/font&gt;" style="html=1;whiteSpace=wrap;" vertex="1" parent="1">
          <mxGeometry x="-2135" y="20" width="170" height="50" as="geometry" />
        </mxCell>
        <mxCell id="Y2Ycr3pLK0KxsmjXO_Lx-14" value="" style="endArrow=block;endSize=16;endFill=0;html=1;rounded=0;exitX=0.5;exitY=0;exitDx=0;exitDy=0;entryX=0.5;entryY=1;entryDx=0;entryDy=0;" edge="1" parent="1" source="Y2Ycr3pLK0KxsmjXO_Lx-13" target="Y2Ycr3pLK0KxsmjXO_Lx-12">
          <mxGeometry width="160" relative="1" as="geometry">
            <mxPoint x="-2050.43" y="30" as="sourcePoint" />
            <mxPoint x="-2050.43" y="-60" as="targetPoint" />
          </mxGeometry>
        </mxCell>
        <mxCell id="Y2Ycr3pLK0KxsmjXO_Lx-15" value="" style="endArrow=block;dashed=1;endFill=0;endSize=12;html=1;rounded=0;entryX=0.5;entryY=1;entryDx=0;entryDy=0;edgeStyle=orthogonalEdgeStyle;exitX=1;exitY=0.5;exitDx=0;exitDy=0;" edge="1" parent="1" source="Y2Ycr3pLK0KxsmjXO_Lx-13" target="Y2Ycr3pLK0KxsmjXO_Lx-11">
          <mxGeometry width="160" relative="1" as="geometry">
            <mxPoint x="-1890" y="59.519999999999996" as="sourcePoint" />
            <mxPoint x="-1800" y="-55.480000000000004" as="targetPoint" />
          </mxGeometry>
        </mxCell>
        <mxCell id="Y2Ycr3pLK0KxsmjXO_Lx-16" value="&lt;font style=&quot;font-size: 13px;&quot;&gt;HorseRiderComponent&lt;/font&gt;" style="html=1;whiteSpace=wrap;" vertex="1" parent="1">
          <mxGeometry x="-2132.5" y="150" width="165" height="50" as="geometry" />
        </mxCell>
        <mxCell id="Y2Ycr3pLK0KxsmjXO_Lx-17" value="" style="endArrow=block;endSize=16;endFill=0;html=1;rounded=0;exitX=0.5;exitY=0;exitDx=0;exitDy=0;entryX=0.5;entryY=1;entryDx=0;entryDy=0;" edge="1" parent="1" source="Y2Ycr3pLK0KxsmjXO_Lx-16" target="Y2Ycr3pLK0KxsmjXO_Lx-13">
          <mxGeometry width="160" relative="1" as="geometry">
            <mxPoint x="-2055.43" y="180" as="sourcePoint" />
            <mxPoint x="-2055.43" y="90" as="targetPoint" />
          </mxGeometry>
        </mxCell>
        <mxCell id="Y2Ycr3pLK0KxsmjXO_Lx-18" value="&lt;font style=&quot;font-size: 14px;&quot;&gt;AJYCharacter&lt;/font&gt;" style="html=1;whiteSpace=wrap;" vertex="1" parent="1">
          <mxGeometry x="-2170" y="440" width="120" height="50" as="geometry" />
        </mxCell>
        <mxCell id="Y2Ycr3pLK0KxsmjXO_Lx-19" value="&lt;font style=&quot;font-size: 14px;&quot;&gt;IVehicleInterface&lt;/font&gt;" style="html=1;whiteSpace=wrap;" vertex="1" parent="1">
          <mxGeometry x="-2170" y="270" width="120" height="50" as="geometry" />
        </mxCell>
        <mxCell id="Y2Ycr3pLK0KxsmjXO_Lx-20" value="" style="endArrow=block;dashed=1;endFill=0;endSize=12;html=1;rounded=0;entryX=0.5;entryY=1;entryDx=0;entryDy=0;edgeStyle=orthogonalEdgeStyle;" edge="1" parent="1" target="Y2Ycr3pLK0KxsmjXO_Lx-19">
          <mxGeometry width="160" relative="1" as="geometry">
            <mxPoint x="-2110" y="440" as="sourcePoint" />
            <mxPoint x="-2090" y="340" as="targetPoint" />
          </mxGeometry>
        </mxCell>
        <mxCell id="Y2Ycr3pLK0KxsmjXO_Lx-21" value="&lt;font style=&quot;font-size: 14px;&quot;&gt;UJYVehicleImplementation&lt;/font&gt;" style="html=1;whiteSpace=wrap;" vertex="1" parent="1">
          <mxGeometry x="-1800" y="440" width="190" height="50" as="geometry" />
        </mxCell>
        <mxCell id="Y2Ycr3pLK0KxsmjXO_Lx-23" value="&lt;font style=&quot;font-size: 13px;&quot;&gt;UJYVehicleImpl_Sword&lt;/font&gt;" style="html=1;whiteSpace=wrap;" vertex="1" parent="1">
          <mxGeometry x="-1940" y="650" width="160" height="50" as="geometry" />
        </mxCell>
        <mxCell id="Y2Ycr3pLK0KxsmjXO_Lx-24" value="&lt;font style=&quot;font-size: 13px;&quot;&gt;UJYVehicleImpl_Dragon&lt;/font&gt;" style="html=1;whiteSpace=wrap;" vertex="1" parent="1">
          <mxGeometry x="-1575" y="650" width="160" height="50" as="geometry" />
        </mxCell>
        <mxCell id="Y2Ycr3pLK0KxsmjXO_Lx-25" value="&lt;font style=&quot;font-size: 13px;&quot;&gt;UJYVehicleImpl_Horse&lt;/font&gt;" style="html=1;whiteSpace=wrap;" vertex="1" parent="1">
          <mxGeometry x="-1765" y="650" width="160" height="50" as="geometry" />
        </mxCell>
        <mxCell id="Y2Ycr3pLK0KxsmjXO_Lx-26" value="" style="endArrow=block;endSize=16;endFill=0;html=1;rounded=0;entryX=0.5;entryY=1;entryDx=0;entryDy=0;exitX=0.5;exitY=0;exitDx=0;exitDy=0;" edge="1" parent="1" source="Y2Ycr3pLK0KxsmjXO_Lx-23" target="Y2Ycr3pLK0KxsmjXO_Lx-21">
          <mxGeometry width="160" relative="1" as="geometry">
            <mxPoint x="-1779.57" y="480" as="sourcePoint" />
            <mxPoint x="-1780" y="410" as="targetPoint" />
          </mxGeometry>
        </mxCell>
        <mxCell id="Y2Ycr3pLK0KxsmjXO_Lx-27" value="" style="endArrow=block;endSize=16;endFill=0;html=1;rounded=0;entryX=0.591;entryY=1.013;entryDx=0;entryDy=0;exitX=0.5;exitY=0;exitDx=0;exitDy=0;entryPerimeter=0;" edge="1" parent="1" source="Y2Ycr3pLK0KxsmjXO_Lx-25" target="Y2Ycr3pLK0KxsmjXO_Lx-21">
          <mxGeometry width="160" relative="1" as="geometry">
            <mxPoint x="-1835" y="570" as="sourcePoint" />
            <mxPoint x="-1715" y="330" as="targetPoint" />
          </mxGeometry>
        </mxCell>
        <mxCell id="Y2Ycr3pLK0KxsmjXO_Lx-28" value="" style="endArrow=block;endSize=16;endFill=0;html=1;rounded=0;entryX=0.704;entryY=1.013;entryDx=0;entryDy=0;exitX=0.5;exitY=0;exitDx=0;exitDy=0;entryPerimeter=0;" edge="1" parent="1" source="Y2Ycr3pLK0KxsmjXO_Lx-24" target="Y2Ycr3pLK0KxsmjXO_Lx-21">
          <mxGeometry width="160" relative="1" as="geometry">
            <mxPoint x="-1660" y="570" as="sourcePoint" />
            <mxPoint x="-1698" y="331" as="targetPoint" />
          </mxGeometry>
        </mxCell>
        <mxCell id="Y2Ycr3pLK0KxsmjXO_Lx-29" value="1" style="endArrow=open;html=1;endSize=12;startArrow=diamondThin;startSize=14;startFill=1;align=left;verticalAlign=bottom;rounded=0;entryX=0;entryY=0.5;entryDx=0;entryDy=0;exitX=1;exitY=0.5;exitDx=0;exitDy=0;" edge="1" parent="1" source="Y2Ycr3pLK0KxsmjXO_Lx-18" target="Y2Ycr3pLK0KxsmjXO_Lx-21">
          <mxGeometry x="-1" y="3" relative="1" as="geometry">
            <mxPoint x="-2090" y="570" as="sourcePoint" />
            <mxPoint x="-1930" y="570" as="targetPoint" />
          </mxGeometry>
        </mxCell>
      </root>
    </mxGraphModel>
  </diagram>
</mxfile>
